# This file uses centimeters as units for non-parametric coordinates.

mtllib RockPlatform3.mtl
g default
v -1.087504 -0.000651 1.910149
v 0.809248 -0.000651 2.294633
v -0.600444 0.391203 1.373374
v 0.522648 0.715800 1.609763
v -0.852835 0.559698 -1.549986
v 0.964032 0.871020 -1.792640
v -1.498015 -0.000651 -2.126902
v 1.287078 -0.000651 -2.294633
v 1.328646 0.793410 1.011741
v -1.225117 0.537072 0.484541
v -1.791237 -0.000651 0.464470
v 1.893865 -0.000651 1.339118
v -1.288215 0.548385 -0.532723
v -1.893865 -0.000651 -0.831216
v 1.869246 -0.000651 -0.477757
v 1.425113 0.832215 -0.390450
v -0.027829 0.657252 0.731710
vt 0.375000 0.000000
vt 0.625000 0.000000
vt 0.375000 0.250000
vt 0.625000 0.250000
vt 0.375000 0.500000
vt 0.625000 0.500000
vt 0.375000 0.750000
vt 0.625000 0.750000
vt 0.375000 1.000000
vt 0.625000 1.000000
vt 0.875000 0.000000
vt 0.875000 0.250000
vt 0.125000 0.000000
vt 0.125000 0.250000
vt 0.625000 0.375000
vt 0.750000 0.250000
vt 0.250000 0.250000
vt 0.375000 0.375000
vt 0.250000 0.000000
vt 0.375000 0.875000
vt 0.625000 0.875000
vt 0.750000 0.000000
vt 0.187500 0.250000
vt 0.375000 0.437500
vt 0.187500 0.000000
vt 0.375000 0.812500
vt 0.625000 0.812500
vt 0.812500 0.000000
vt 0.625000 0.437500
vt 0.812500 0.250000
vt 0.492208 0.375000
vn -0.210739 0.740955 0.637632
vn -0.210739 0.740955 0.637632
vn -0.210739 0.740955 0.637632
vn -0.210739 0.740955 0.637632
vn -0.213770 0.955082 0.205232
vn -0.123429 0.991367 0.044231
vn -0.110377 0.992742 0.047757
vn -0.111222 0.613851 -0.781548
vn -0.111222 0.613851 -0.781548
vn -0.111222 0.613851 -0.781548
vn -0.111222 0.613851 -0.781547
vn -0.000000 -1.000000 -0.000000
vn -0.000000 -1.000000 -0.000000
vn -0.000000 -1.000000 -0.000000
vn -0.000000 -1.000000 -0.000000
vn 0.461428 0.658572 0.594447
vn 0.711781 0.629663 0.311274
vn 0.727343 0.623478 0.286789
vn 0.461428 0.658572 0.594447
vn -0.621125 0.761218 0.186417
vn -0.520326 0.781222 0.344895
vn -0.520326 0.781222 0.344895
vn -0.598214 0.768714 0.226316
vn -0.117349 0.992714 0.027362
vn -0.103743 0.994588 -0.005658
vn -0.616232 0.779692 -0.111082
vn -0.634903 0.769176 -0.072565
vn -0.000000 -1.000000 0.000000
vn -0.000000 -1.000000 0.000000
vn 0.853754 0.504667 -0.128122
vn 0.853818 0.505137 -0.125825
vn -0.567949 0.798343 -0.200205
vn -0.567949 0.798343 -0.200205
vn -0.000000 -1.000000 0.000000
vn -0.000000 -1.000000 0.000000
vn 0.840940 0.470751 -0.266860
vn 0.840940 0.470751 -0.266860
vn -0.117827 0.993032 -0.001909
vn -0.158071 0.984245 0.079217
vn -0.164733 0.985623 0.037555
vn -0.103304 0.994507 0.016849
s off
g pCube3
usemtl initialShadingGroup
f 1/1/1 2/2/2 4/4/3 3/3/4
s 1
f 3/3/5 17/31/6 10/18/7
s off
f 5/5/8 6/6/9 8/8/10 7/7/11
s 2
f 11/20/12 12/21/13 2/10/14 1/9/15
s 3
f 2/2/16 12/22/17 9/16/18 4/4/19
s 4
f 11/19/20 1/1/21 3/3/22 10/17/23
s 1
f 10/18/7 16/29/24 13/24/25
s 4
f 14/25/26 11/19/20 10/17/23 13/23/27
s 2
f 14/26/28 15/27/29 12/21/13 11/20/12
s 3
f 9/16/18 12/22/17 15/28/30 16/30/31
s 4
f 7/13/32 14/25/26 13/23/27 5/14/33
s 2
f 7/7/34 8/8/35 15/27/29 14/26/28
s 3
f 16/30/31 15/28/30 8/11/36 6/12/37
s 1
f 5/5/38 16/29/24 6/6/39
f 17/31/6 4/4/40 9/15/41
f 3/3/5 4/4/40 17/31/6
f 13/24/25 16/29/24 5/5/38
f 10/18/7 17/31/6 9/15/41 16/29/24
