# This file uses centimeters as units for non-parametric coordinates.

mtllib RockPlatform1.mtl
g default
v -1.603328 -0.007878 1.516718
v 0.512113 -0.007878 1.945532
v -1.060112 0.298094 0.918056
v 0.192468 0.660115 1.181699
v -1.341602 0.486015 -1.064569
v 0.684743 0.833231 -1.335200
v -2.061169 -0.007878 -1.708001
v 1.045034 -0.007878 -1.895071
v 1.091395 0.746673 0.514727
v -1.200857 0.460780 -0.073257
v -1.832248 -0.007878 -0.095641
v 1.721782 -0.007878 0.879850
vt 0.375000 0.000000
vt 0.625000 0.000000
vt 0.375000 0.250000
vt 0.625000 0.250000
vt 0.375000 0.500000
vt 0.625000 0.500000
vt 0.375000 0.750000
vt 0.625000 0.750000
vt 0.375000 1.000000
vt 0.625000 1.000000
vt 0.875000 0.000000
vt 0.875000 0.250000
vt 0.125000 0.000000
vt 0.125000 0.250000
vt 0.625000 0.375000
vt 0.750000 0.250000
vt 0.250000 0.250000
vt 0.375000 0.375000
vt 0.250000 0.000000
vt 0.375000 0.875000
vt 0.625000 0.875000
vt 0.750000 0.000000
vn -0.199954 0.812318 0.547866
vn -0.199954 0.812318 0.547866
vn -0.199954 0.812318 0.547866
vn -0.199954 0.812318 0.547866
vn -0.193160 0.979398 0.058892
vn -0.193160 0.979398 0.058892
vn -0.162765 0.984521 0.065008
vn -0.160554 0.984855 0.065449
vn -0.110612 0.681669 -0.723251
vn -0.110612 0.681669 -0.723251
vn -0.110612 0.681669 -0.723251
vn -0.110612 0.681669 -0.723251
vn 0.000000 -1.000000 0.000000
vn 0.000000 -1.000000 0.000000
vn 0.000000 -1.000000 0.000000
vn 0.000000 -1.000000 0.000000
vn 0.423000 0.719563 0.550727
vn 0.716033 0.680723 0.154640
vn 0.750537 0.656092 0.078973
vn 0.423000 0.719563 0.550727
vn -0.563414 0.819137 0.107606
vn -0.502825 0.855326 0.124834
vn -0.502825 0.855326 0.124834
vn -0.555783 0.824037 0.109855
vn -0.149582 0.986434 0.067631
vn -0.149582 0.986434 0.067631
vn -0.608007 0.788352 0.093965
vn -0.608007 0.788352 0.093965
vn 0.000000 -1.000000 0.000000
vn 0.000000 -1.000000 0.000000
vn 0.825010 0.534580 -0.183258
vn 0.825009 0.534580 -0.183258
s off
g pCube5
usemtl initialShadingGroup
f 1/1/1 2/2/2 4/4/3 3/3/4
s 1
f 3/3/5 4/4/6 9/15/7 10/18/8
s off
f 5/5/9 6/6/10 8/8/11 7/7/12
s 2
f 11/20/13 12/21/14 2/10/15 1/9/16
s 3
f 2/2/17 12/22/18 9/16/19 4/4/20
s 4
f 11/19/21 1/1/22 3/3/23 10/17/24
s 1
f 10/18/8 9/15/7 6/6/25 5/5/26
s 4
f 7/13/27 11/19/21 10/17/24 5/14/28
s 2
f 7/7/29 8/8/30 12/21/14 11/20/13
s 3
f 9/16/19 12/22/18 8/11/31 6/12/32
