# This file uses centimeters as units for non-parametric coordinates.

mtllib RockPlatform2.mtl
g default
v -1.215618 0.021579 1.341978
v 0.687767 0.021579 1.727807
v -0.726855 0.438423 0.803327
v 0.400164 0.764154 1.040542
v -0.980128 0.607507 -0.980556
v 0.843092 0.777234 -1.224059
v -1.627564 0.021579 -1.559489
v 1.167268 0.021579 -1.727807
v 1.208981 0.842036 0.440429
v -1.428783 0.347984 -0.088615
v -1.817235 0.021579 -0.108755
v 1.776176 0.021579 0.768951
vt 0.375000 0.000000
vt 0.625000 0.000000
vt 0.375000 0.250000
vt 0.625000 0.250000
vt 0.375000 0.500000
vt 0.625000 0.500000
vt 0.375000 0.750000
vt 0.625000 0.750000
vt 0.375000 1.000000
vt 0.625000 1.000000
vt 0.875000 0.000000
vt 0.875000 0.250000
vt 0.125000 0.000000
vt 0.125000 0.250000
vt 0.625000 0.375000
vt 0.750000 0.250000
vt 0.250000 0.250000
vt 0.375000 0.375000
vt 0.250000 0.000000
vt 0.375000 0.875000
vt 0.625000 0.875000
vt 0.750000 0.000000
vn -0.212378 0.727122 0.652832
vn -0.212378 0.727122 0.652832
vn -0.212378 0.727122 0.652832
vn -0.212378 0.727122 0.652832
vn -0.208208 0.977811 -0.023145
vn -0.208208 0.977811 -0.023145
vn -0.166587 0.984981 0.045395
vn -0.163854 0.985226 0.049825
vn -0.091605 0.638653 -0.764023
vn -0.091605 0.638653 -0.764023
vn -0.091605 0.638653 -0.764023
vn -0.091605 0.638653 -0.764023
vn 0.000000 -1.000000 -0.000000
vn 0.000000 -1.000000 -0.000000
vn 0.000000 -1.000000 -0.000000
vn 0.000000 -1.000000 -0.000000
vn 0.468001 0.647089 0.601872
vn 0.757036 0.631138 0.169001
vn 0.782798 0.614144 0.100271
vn 0.468001 0.647089 0.601872
vn -0.595992 0.800303 0.065638
vn -0.528508 0.807188 0.262919
vn -0.528508 0.807188 0.262919
vn -0.589688 0.802822 0.088006
vn -0.151208 0.986006 0.070208
vn -0.151208 0.986006 0.070208
vn -0.629957 0.771837 -0.086144
vn -0.629957 0.771837 -0.086144
vn 0.000000 -1.000000 0.000000
vn 0.000000 -1.000000 0.000000
vn 0.842008 0.498991 -0.205016
vn 0.842008 0.498991 -0.205016
s off
g pCube4
usemtl initialShadingGroup
f 1/1/1 2/2/2 4/4/3 3/3/4
s 1
f 3/3/5 4/4/6 9/15/7 10/18/8
s off
f 5/5/9 6/6/10 8/8/11 7/7/12
s 2
f 11/20/13 12/21/14 2/10/15 1/9/16
s 3
f 2/2/17 12/22/18 9/16/19 4/4/20
s 4
f 11/19/21 1/1/22 3/3/23 10/17/24
s 1
f 10/18/8 9/15/7 6/6/25 5/5/26
s 4
f 7/13/27 11/19/21 10/17/24 5/14/28
s 2
f 7/7/29 8/8/30 12/21/14 11/20/13
s 3
f 9/16/19 12/22/18 8/11/31 6/12/32
