# This file uses centimeters as units for non-parametric coordinates.

mtllib SquareButton.mtl
g default
v 30.254247 0.894951 1.738443
v 30.703131 0.894951 2.187327
v 30.478689 0.894951 2.127188
v 30.314387 0.894951 1.962885
v 30.254247 1.324781 1.738444
v 30.314387 1.324781 1.962885
v 30.478689 1.324781 2.127188
v 30.703131 1.324781 2.187327
v 34.743532 0.894951 1.738443
v 34.683394 0.894951 1.962885
v 34.519091 0.894951 2.127188
v 34.294650 0.894951 2.187327
v 34.743532 1.324781 1.738444
v 34.294650 1.324781 2.187327
v 34.519091 1.324781 2.127188
v 34.683394 1.324781 1.962885
v 30.478689 1.324781 -2.241818
v 30.314387 1.324781 -2.077515
v 30.254247 1.324781 -1.853073
v 30.703131 1.324781 -2.301957
v 30.254247 0.894951 -1.853073
v 30.314387 0.894951 -2.077514
v 30.478689 0.894951 -2.241818
v 30.703131 0.894951 -2.301956
v 34.683394 1.324781 -2.077515
v 34.519091 1.324781 -2.241818
v 34.294650 1.324781 -2.301957
v 34.743532 1.324781 -1.853073
v 34.743532 0.894951 -1.853073
v 34.294650 0.894951 -2.301956
v 34.519091 0.894951 -2.241818
v 34.683394 0.894951 -2.077514
vt 0.399997 0.000000
vt 0.149998 0.000000
vt 0.350002 0.250000
vt 0.649998 0.000000
vt 0.850002 0.250000
vt 0.350003 0.000000
vt 0.399997 0.250000
vt 0.600003 -0.000000
vt 0.649997 0.250000
vt 0.149997 0.250000
vt 0.399997 0.750000
vt 0.600003 0.500000
vt 0.850003 0.000000
vt 0.399997 0.500000
vt 0.375000 0.475002
vt 0.375000 0.274997
vt 0.600003 0.250000
vt 0.625000 0.274997
vt 0.625000 0.475003
vt 0.625000 0.774997
vt 0.625000 0.975003
vt 0.600003 1.000000
vt 0.399997 1.000000
vt 0.375000 0.975002
vt 0.375000 0.774997
vt 0.600003 0.750000
vt -0.000000 -0.000000
vt 0.383332 0.000000
vt -0.000000 -0.000000
vt 0.366668 0.000000
vt 0.375000 0.250000
vt 0.387499 0.250000
vt -0.000000 -0.000000
vt 0.633333 0.000000
vt -0.000000 -0.000000
vt 0.616668 -0.000000
vt 0.612501 0.250000
vt 0.625000 0.250000
vt 0.387499 0.500000
vt 0.375000 0.500000
vt 0.125000 0.250000
vt 0.375000 0.750000
vt 0.125000 0.000000
vt 0.387499 0.750000
vt 0.625000 0.500000
vt 0.875000 0.250000
vt 0.612501 0.500000
vt 0.612501 0.750000
vt 0.875000 0.000000
vt 0.625000 0.750000
vn -0.015758 -0.000000 0.999876
vn -0.015758 -0.000000 0.999876
vn 0.015758 -0.000000 0.999876
vn 0.015758 -0.000000 0.999876
vn -0.015758 -0.000001 -0.999876
vn -0.015758 -0.000001 -0.999876
vn 0.015758 -0.000001 -0.999876
vn 0.015758 -0.000001 -0.999876
vn 0.999876 0.000000 0.015758
vn 0.999876 0.000000 0.015758
vn 0.999876 0.000000 -0.015758
vn 0.999876 0.000000 -0.015758
vn -0.999876 0.000000 -0.015758
vn -0.999876 0.000000 -0.015758
vn -0.999876 0.000000 0.015758
vn -0.999876 0.000000 0.015758
vn -0.965925 -0.000000 0.258822
vn -0.965925 -0.000000 0.258822
vn -0.707108 -0.000000 0.707106
vn -0.707108 -0.000000 0.707106
vn -0.707108 -0.000000 0.707106
vn -0.707108 -0.000000 0.707106
vn -0.258818 -0.000000 0.965926
vn -0.258818 -0.000000 0.965926
vn 0.500000 -0.000000 0.866025
vn 0.500000 -0.000000 0.866025
vn 0.707108 -0.000000 0.707106
vn 0.707108 -0.000000 0.707106
vn 0.965927 -0.000000 0.258815
vn 0.965927 -0.000000 0.258815
vn -0.965925 -0.000000 -0.258821
vn -0.965925 -0.000000 -0.258821
vn -0.707108 -0.000000 -0.707105
vn -0.707108 -0.000000 -0.707106
vn -0.707108 -0.000000 -0.707106
vn -0.707108 -0.000000 -0.707106
vn -0.258818 -0.000001 -0.965926
vn -0.258818 -0.000001 -0.965926
vn 0.258818 -0.000000 -0.965926
vn 0.258818 -0.000000 -0.965926
vn 0.707108 -0.000001 -0.707106
vn 0.707108 -0.000001 -0.707105
vn 0.707108 -0.000001 -0.707106
vn 0.707108 -0.000001 -0.707106
vn 0.965927 -0.000001 -0.258814
vn 0.965927 -0.000001 -0.258814
vn 0.000000 1.000000 0.000000
vn 0.000000 1.000000 0.000000
vn 0.000000 1.000000 0.000000
vn 0.000000 1.000000 0.000000
vn 0.000000 1.000000 0.000000
vn 0.000000 1.000000 0.000000
vn 0.000000 1.000000 0.000000
vn 0.000000 1.000000 0.000000
vn 0.000000 1.000000 0.000000
vn 0.000000 1.000000 0.000000
vn 0.000000 1.000000 0.000000
vn 0.000000 1.000000 0.000000
vn 0.000000 1.000000 0.000000
vn 0.000000 1.000000 0.000000
vn 0.000000 1.000000 0.000000
vn 0.000000 1.000000 0.000000
vn 0.000000 -1.000000 -0.000000
vn 0.000000 -1.000000 -0.000000
vn 0.000000 -1.000000 -0.000000
vn 0.000000 -1.000000 -0.000000
vn 0.000000 -1.000000 -0.000000
vn 0.000000 -1.000000 -0.000000
vn 0.000000 -1.000000 -0.000000
vn 0.000000 -1.000000 -0.000000
vn 0.000000 -1.000000 -0.000000
vn 0.000000 -1.000000 -0.000000
vn 0.000000 -1.000000 -0.000000
vn 0.000000 -1.000000 -0.000000
vn 0.000000 -1.000000 -0.000000
vn 0.000000 -1.000000 -0.000000
vn 0.000000 -1.000000 -0.000000
vn 0.000000 -1.000000 -0.000000
s 1
g pCube4
usemtl lambert7SG
f 8/7/1 2/1/2 12/8/3 14/17/4
s 2
f 24/11/5 20/14/6 27/12/7 30/26/8
s 3
f 13/9/9 9/4/10 29/13/11 28/5/12
s 4
f 19/10/13 21/2/14 1/6/15 5/3/16
f 1/6/15 4/30/17 6/31/18 5/3/16
s off
f 4/30/19 3/28/20 7/32/21 6/31/22
s 1
f 3/28/23 2/1/2 8/7/1 7/32/24
f 12/8/3 11/36/25 15/37/26 14/17/4
f 11/36/25 10/34/27 16/38/28 15/37/26
s 3
f 10/34/29 9/4/10 13/9/9 16/38/30
s 4
f 19/10/13 18/41/31 22/43/32 21/2/14
s off
f 18/40/33 17/39/34 23/44/35 22/42/36
s 2
f 17/39/37 20/14/6 24/11/5 23/44/38
f 27/12/7 26/47/39 31/48/40 30/26/8
s off
f 26/47/41 25/45/42 32/50/43 31/48/44
s 3
f 25/46/45 28/5/12 29/13/11 32/49/46
s off
f 25/45/47 26/47/48 27/12/49 20/14/50 17/39/51 18/40/52 19/15/53 5/16/54 6/31/55 7/32/56 8/7/57 14/17/58 15/37/59 16/38/60 13/18/61 28/19/62
f 29/20/63 9/21/64 10/33/65 11/35/66 12/22/67 2/23/68 3/27/69 4/29/70 1/24/71 21/25/72 22/42/73 23/44/74 24/11/75 30/26/76 31/48/77 32/50/78
g default
v 29.681840 0.025236 2.234349
v 30.207229 0.025236 2.759736
v 30.006171 0.025236 2.719743
v 29.835723 0.025236 2.605854
v 29.721835 0.025236 2.435406
v 29.871694 0.937160 2.044495
v 29.911689 0.937160 2.245552
v 30.025576 0.937160 2.416000
v 30.196025 0.937160 2.529889
v 30.397083 0.937160 2.569882
v 35.315945 0.025236 2.234349
v 35.275951 0.025236 2.435406
v 35.162059 0.025236 2.605854
v 34.991615 0.025236 2.719743
v 34.790558 0.025236 2.759736
v 35.126088 0.937160 2.044495
v 34.600701 0.937160 2.569882
v 34.801758 0.937160 2.529889
v 34.972206 0.937160 2.416000
v 35.086094 0.937160 2.245552
v 30.196025 0.937160 -2.644519
v 30.025576 0.937160 -2.530629
v 29.911689 0.937160 -2.360181
v 29.871694 0.937160 -2.159125
v 30.397083 0.937160 -2.684511
v 29.681840 0.025236 -2.348978
v 29.721835 0.025236 -2.550035
v 29.835723 0.025236 -2.720483
v 30.006171 0.025236 -2.834373
v 30.207229 0.025236 -2.874365
v 35.086094 0.937160 -2.360181
v 34.972206 0.937160 -2.530629
v 34.801758 0.937160 -2.644519
v 34.600701 0.937160 -2.684511
v 35.126088 0.937160 -2.159125
v 35.315945 0.025236 -2.348978
v 34.790558 0.025236 -2.874365
v 34.991615 0.025236 -2.834373
v 35.162059 0.025236 -2.720483
v 35.275951 0.025236 -2.550035
vt 0.398313 0.000000
vt 0.148313 0.000000
vt 0.350002 0.250000
vt 0.648313 -0.000000
vt 0.850002 0.250000
vt 0.351687 0.000000
vt 0.399998 0.250000
vt 0.601687 0.000000
vt 0.649998 0.250000
vt 0.149997 0.250000
vt 0.398313 0.750000
vt 0.600003 0.500000
vt 0.851687 0.000000
vt 0.399998 0.500000
vt 0.375000 0.475002
vt 0.375000 0.274998
vt 0.600003 0.250000
vt 0.625000 0.274998
vt 0.625000 0.475003
vt 0.625000 0.773313
vt 0.625000 0.976687
vt 0.601687 1.000000
vt 0.398313 1.000000
vt 0.375000 0.976687
vt 0.375000 0.773313
vt 0.601687 0.750000
vt -0.000000 -0.000000
vt 0.386656 0.000000
vt 0.375000 1.000000
vt 0.375000 0.000000
vt -0.000000 -0.000000
vt 0.363344 0.000000
vt 0.362501 0.250000
vt -0.000000 -0.000000
vt 0.375000 0.250000
vt 0.387499 0.250000
vt -0.000000 -0.000000
vt 0.636656 -0.000000
vt 0.625000 1.000000
vt 0.625000 0.000000
vt -0.000000 -0.000000
vt 0.613344 0.000000
vt 0.612501 0.250000
vt 0.625000 0.250000
vt 0.637499 0.250000
vt -0.000000 -0.000000
vt 0.387499 0.500000
vt 0.375000 0.500000
vt 0.125000 0.250000
vt -0.000000 -0.000000
vt 0.137499 0.250000
vt 0.136656 0.000000
vt -0.000000 -0.000000
vt 0.375000 0.750000
vt 0.125000 0.000000
vt 0.386656 0.750000
vt -0.000000 -0.000000
vt 0.862501 0.250000
vt 0.625000 0.500000
vt 0.875000 0.250000
vt 0.612501 0.500000
vt 0.613344 0.750000
vt 0.875000 0.000000
vt 0.625000 0.750000
vt 0.863344 0.000000
vt -0.000000 -0.000000
vn -0.006855 0.205184 0.978700
vn -0.010626 0.205929 0.978509
vn 0.010626 0.205929 0.978509
vn 0.006855 0.205184 0.978700
vn -0.010626 0.205929 -0.978509
vn -0.006855 0.205183 -0.978700
vn 0.006855 0.205183 -0.978700
vn 0.010626 0.205929 -0.978509
vn 0.978699 0.205186 0.006856
vn 0.978509 0.205931 0.010626
vn 0.978509 0.205931 -0.010626
vn 0.978699 0.205186 -0.006856
vn -0.978700 0.205183 -0.006856
vn -0.978509 0.205928 -0.010626
vn -0.978509 0.205928 0.010626
vn -0.978700 0.205183 0.006856
vn -0.885913 0.263861 0.381490
vn -0.896564 0.261135 0.357745
vn -0.678318 0.282438 0.678316
vn -0.678318 0.282438 0.678316
vn -0.381488 0.263861 0.885914
vn -0.357742 0.261135 0.896565
vn 0.381491 0.263862 0.885913
vn 0.357745 0.261136 0.896564
vn 0.678318 0.282439 0.678316
vn 0.678318 0.282439 0.678316
vn 0.885912 0.263863 0.381492
vn 0.896563 0.261137 0.357747
vn -0.896564 0.261135 -0.357745
vn -0.885913 0.263861 -0.381490
vn -0.678319 0.282438 -0.678316
vn -0.678319 0.282438 -0.678316
vn -0.357742 0.261135 -0.896565
vn -0.381488 0.263861 -0.885914
vn 0.357744 0.261136 -0.896564
vn 0.381491 0.263862 -0.885913
vn 0.678319 0.282439 -0.678315
vn 0.678319 0.282439 -0.678316
vn 0.896563 0.261137 -0.357747
vn 0.885912 0.263863 -0.381492
vn 0.000000 1.000000 0.000000
vn 0.000000 1.000000 0.000000
vn 0.000000 1.000000 0.000000
vn 0.000000 1.000000 0.000000
vn 0.000000 1.000000 0.000000
vn 0.000000 1.000000 0.000000
vn 0.000000 1.000000 0.000000
vn 0.000000 1.000000 0.000000
vn 0.000000 1.000000 0.000000
vn 0.000000 1.000000 0.000000
vn 0.000000 1.000000 0.000000
vn 0.000000 1.000000 0.000000
vn 0.000000 1.000000 0.000000
vn 0.000000 1.000000 0.000000
vn 0.000000 1.000000 0.000000
vn 0.000000 1.000000 0.000000
vn 0.000000 1.000000 0.000000
vn 0.000000 1.000000 0.000000
vn 0.000000 1.000000 0.000000
vn 0.000000 1.000000 0.000000
vn 0.000000 -1.000000 -0.000000
vn 0.000000 -1.000000 -0.000000
vn 0.000000 -1.000000 -0.000000
vn 0.000000 -1.000000 -0.000000
vn 0.000000 -1.000000 -0.000000
vn 0.000000 -1.000000 -0.000000
vn 0.000000 -1.000000 -0.000000
vn 0.000000 -1.000000 -0.000000
vn 0.000000 -1.000000 -0.000000
vn 0.000000 -1.000000 -0.000000
vn 0.000000 -1.000000 -0.000000
vn 0.000000 -1.000000 -0.000000
vn 0.000000 -1.000000 -0.000000
vn 0.000000 -1.000000 -0.000000
vn 0.000000 -1.000000 -0.000000
vn 0.000000 -1.000000 -0.000000
vn 0.000000 -1.000000 -0.000000
vn 0.000000 -1.000000 -0.000000
vn 0.000000 -1.000000 -0.000000
vn 0.000000 -1.000000 -0.000000
s 1
g pCube5
usemtl lambert6SG
f 42/57/79 34/51/80 47/58/81 49/67/82
f 62/61/83 57/64/84 66/62/85 69/76/86
f 48/59/87 43/54/88 68/63/89 67/55/90
f 56/60/91 58/52/92 33/56/93 38/53/94
f 33/56/93 37/82/95 39/83/96 38/53/94
f 37/82/95 36/80/97 40/85/98 39/83/96
f 36/80/97 35/78/99 41/86/100 40/85/98
f 35/78/99 34/51/80 42/57/79 41/86/100
f 47/58/81 46/92/101 50/93/102 49/67/82
f 46/92/101 45/90/103 51/94/104 50/93/102
f 45/90/103 44/88/105 52/95/106 51/94/104
f 44/88/105 43/54/88 48/59/87 52/95/106
f 56/60/91 55/101/107 59/102/108 58/52/92
f 55/101/107 54/99/109 60/105/110 59/102/108
f 54/98/109 53/97/111 61/106/112 60/104/110
f 53/97/111 57/64/84 62/61/83 61/106/112
f 66/62/85 65/111/113 70/112/114 69/76/86
f 65/111/113 64/109/115 71/114/116 70/112/114
f 64/110/115 63/108/117 72/115/118 71/113/116
f 63/108/117 67/55/90 68/63/89 72/115/118
s off
f 63/107/119 64/109/120 65/111/121 66/62/122 57/64/123 53/97/124 54/98/125 55/100/126 56/65/127 38/66/128 39/84/129 40/85/130 41/86/131 42/57/132 49/67/133 50/93/134 51/94/135 52/96/136 48/68/137 67/69/138
f 68/70/139 43/71/140 44/87/141 45/89/142 46/91/143 47/72/144 34/73/145 35/77/146 36/79/147 37/81/148 33/74/149 58/75/150 59/103/151 60/104/152 61/106/153 62/61/154 69/76/155 70/112/156 71/114/157 72/116/158
